HIERARCHY
ROOT simHips
{
  OFFSET -7.68933 97.4391 50.0166
  CHANNELS 6 Xposition Yposition Zposition Zrotation Xrotation Yrotation
  JOINT simSpine
  {
    OFFSET -0.000355721 21.3001 -0.016921
    CHANNELS 3 Zrotation Xrotation Yrotation
    JOINT simLeftArm
    {
      OFFSET 13.5181 21.3012 0
      CHANNELS 3 Zrotation Xrotation Yrotation
      JOINT simLeftForeArm
      {
        OFFSET 24.5783 0 0
        CHANNELS 3 Zrotation Xrotation Yrotation
        JOINT simLeftHand
        {
          OFFSET 24.5783 0 0
          CHANNELS 3 Zrotation Xrotation Yrotation
          End Site
          {
            OFFSET 7.32568 1.52588e-005 0.0169305
          }
        }
      }
    }
    JOINT simHead
    {
      OFFSET 0 27.4458 -0.00489235
      CHANNELS 3 Zrotation Xrotation Yrotation
      End Site
      {
        OFFSET 0 0 0
      }
    }
    JOINT simRightArm
    {
      OFFSET -13.5174 21.3012 0
      CHANNELS 3 Zrotation Xrotation Yrotation
      JOINT simRightForeArm
      {
        OFFSET -24.5783 0 0
        CHANNELS 3 Zrotation Xrotation Yrotation
        JOINT simRightHand
        {
          OFFSET -24.5783 0 0
          CHANNELS 3 Zrotation Xrotation Yrotation
          End Site
          {
            OFFSET -7.32568 1.52588e-005 0.0169305
          }
        }
      }
    }
  }
  JOINT simRightUpLeg
  {
    OFFSET -8.44614 -9.41038 0.835684
    CHANNELS 3 Zrotation Xrotation Yrotation
    JOINT simRightLeg
    {
      OFFSET 0 -40.9639 0
      CHANNELS 3 Zrotation Xrotation Yrotation
      JOINT simRightFoot
      {
        OFFSET 0 -40.9639 0
        CHANNELS 3 Zrotation Xrotation Yrotation
        End Site
        {
          OFFSET 0.50614 -9.67405 14.6709
        }
      }
    }
  }
  JOINT simLeftUpLeg
  {
    OFFSET 8.44614 -9.41038 0.835684
    CHANNELS 3 Zrotation Xrotation Yrotation
    JOINT simLeftLeg
    {
      OFFSET 0 -40.9639 0
      CHANNELS 3 Zrotation Xrotation Yrotation
      JOINT simLeftFoot
      {
        OFFSET 0 -40.9639 0
        CHANNELS 3 Zrotation Xrotation Yrotation
        End Site
        {
          OFFSET -0.50614 -9.67405 14.6709
        }
      }
    }
  }
}
MOTION
Frames:	28
Frame Time:	0.0333333
-0.417802 97.7315 43.592 -5.73914 6.999 -1.99378 2.4951 -5.974 1.01289 -82.8152 43.7654 7.96721 27.8916 -30.0002 -67.2476 0.339395 -16.3475 2.3626 9.09927 -22.2782 -7.78299 63.0262 59.8712 11.5267 -28.3211 -38.3363 80.9003 -0.983879 -26.975 -4.1018 4.37451 -10.8581 20.0144 -0.00442154 18.0969 0.644491 2.41535 -16.156 -18.1188 -3.2593 -10.4349 -34.1588 0.000449626 28.7414 0.664196 7.45211 -22.383 41.4755 
-1.25536 97.7586 43.7147 -5.68235 7.44412 -2.47686 3.40598 -5.34028 3.8815 -83.2141 31.7755 10.0745 27.9176 -30.1437 -67.482 0.337656 -16.3068 2.35637 7.08759 -24.7241 -10.1986 43.7222 53.0483 31.5849 -28.0662 -39.9323 83.8832 -0.851982 -25.2587 -3.80192 4.86754 -12.0293 19.159 -0.00478324 19.5412 0.593685 1.83792 -17.9638 -16.4069 -2.81663 -10.4581 -34.9795 0.000273252 28.7734 0.659998 7.71149 -23.3358 42.6819 
-2.44308 97.805 44.0993 -5.67836 7.65908 -1.9044 4.53695 -5.28888 7.44416 -81.1277 21.5373 10.4368 27.7626 -29.337 -66.1695 0.24711 -14.0549 2.01588 3.85096 -23.7453 -14.0688 29.0623 40.1088 48.7291 -28.2784 -38.6314 81.4883 -0.693267 -22.9476 -3.4116 5.67156 -12.1248 18.662 -0.00258477 19.9386 0.43708 0.813064 -18.633 -16.3623 -2.21676 -9.60533 -36.8609 0.00236349 27.8534 0.579596 7.66697 -23.4431 44.2346 
-3.80693 97.8465 44.4625 -6.14878 7.22195 1.30406 5.94466 -4.24126 9.95404 -79.0482 12.287 9.56955 27.4079 -27.8121 -63.7693 0.147921 -10.8739 1.54717 0.51743 -22.1987 -18.3493 23.5642 26.1389 58.2286 -28.4157 -33.5735 72.66 -0.509398 -19.8823 -2.91285 7.06677 -10.4734 18.8454 -0.000851418 18.8248 0.232563 -0.92442 -18.0598 -19.0417 -0.398405 -9.48432 -36.8642 0.0198095 26.7489 0.224972 4.80794 -22.0491 41.4046 
-5.06898 97.9679 44.8986 -6.37273 6.42215 5.54724 7.29146 -2.84449 12.0566 -78.3819 4.85735 9.00406 27.1552 -26.8728 -62.282 0.123541 -9.97736 1.41671 -2.98651 -20.7402 -22.9034 21.5301 14.1793 64.2697 -26.6719 -25.3472 59.6085 -0.260022 -14.4588 -2.07611 8.41517 -8.09349 19.8863 -0.00175 17.3561 -0.00381689 -3.55097 -18.3965 -24.0005 1.34872 -9.70435 -35.381 0.0159462 25.4841 -0.0676958 2.05129 -20.6482 36.929 
-6.11024 98.1419 45.4174 -6.02668 5.91768 9.88029 8.18924 -2.08257 14.0787 -78.9916 -0.482703 9.76201 27.0109 -26.3735 -61.4693 0.146003 -10.8329 1.54106 -5.27178 -19.1288 -26.9414 23.2647 4.86974 67.9673 -22.4947 -16.5473 45.2127 -0.118558 -9.14317 -1.29718 9.028 -6.11129 20.8578 -0.00780605 16.0601 -0.22093 -6.46454 -19.3641 -29.2724 2.50718 -10.3164 -33.2523 0.00412643 24.3083 -0.195327 0.336303 -19.9912 31.2735 
-6.98825 98.2793 45.9125 -5.28779 5.897 13.48 8.44687 -1.92867 16.0652 -79.591 -4.4123 11.3373 26.6873 -25.3452 -59.8423 0.130788 -10.2693 1.45904 -6.1539 -17.2312 -29.8061 31.4818 -3.03579 71.2924 -16.2812 -8.96427 30.3576 0.0249834 -3.17455 -0.442319 9.36435 -5.03775 22.4803 -0.00304263 15.7714 -0.442023 -9.76508 -20.8224 -34.6052 2.46767 -11.0796 -32.0542 0.00336857 23.6475 -0.12034 0.295653 -18.7826 27.2787 
-7.69493 98.3593 46.3959 -4.90413 5.87005 16.5351 8.88832 -2.14741 17.493 -79.9629 -7.04133 13.6627 26.2719 -24.1523 -57.9094 0.204523 -12.8132 1.83143 -5.68578 -15.1658 -31.8151 54.8379 -10.5332 74.9656 -9.89054 -3.99667 17.7635 -0.350795 17.4504 2.50936 9.58512 -4.16051 22.6364 -0.00074609 15.0558 -0.557415 -12.0836 -21.3516 -37.8813 2.39466 -12.2144 -30.9475 0.000109925 24.3095 0.125489 1.47345 -17.9773 23.5294 
-8.28913 98.3713 47.0291 -4.90196 5.35728 19.7236 8.99595 -2.57353 17.5829 -80.1607 -11.9004 15.8607 25.4777 -22.1603 -54.7039 0.291221 -15.1373 2.17926 -4.23246 -12.7835 -33.9127 76.1452 -15.6164 75.7265 -7.67355 -2.82906 13.5245 -1.822 34.9308 5.65534 10.1568 -2.5081 22.3852 0.000448615 13.5393 -0.624456 -14.424 -21.4308 -40.9263 2.72944 -12.6583 -30.7131 0.000290573 24.8379 0.272356 1.99093 -17.8102 20.5531 
-8.736 98.2887 47.6565 -4.92857 4.72607 21.9238 8.96128 -3.18073 17.6781 -79.1827 -14.4752 17.3602 24.2376 -19.5569 -50.3084 0.220247 -13.3028 1.90373 -2.42814 -9.89202 -35.4905 80.386 -17.3944 71.5496 -7.54561 -2.77783 13.2725 -2.1292 37.6828 6.23237 10.7134 -1.23041 21.524 -0.000762441 12.6432 -0.643256 -15.8584 -21.5468 -42.3969 2.9609 -12.5091 -31.1127 0.00106384 25.1423 0.224628 1.573 -18.0686 19.6574 
-9.12379 98.1341 48.089 -5.03636 4.17773 23.205 9.08486 -3.57435 17.5873 -77.3592 -17.1268 17.9888 22.1129 -15.9327 -44.0901 0.0578789 -7.215 1.01899 -1.5731 -7.83909 -36.0719 85.0938 -19.0373 68.161 -7.47381 -2.74179 13.1419 -2.5358 40.4346 6.87806 11.2605 -0.443433 20.3083 -0.00355794 12.1154 -0.60888 -16.0832 -21.1271 -42.5418 3.40564 -12.4719 -31.2432 0.00182821 25.6138 0.0963476 0.635769 -18.5818 19.1276 
-9.47144 98.0038 48.3649 -5.26819 4.07637 23.8739 9.13335 -4.06688 17.3859 -75.6564 -20.3635 18.3894 19.9931 -12.9942 -38.7 0.00513713 -0.591112 0.0834632 -0.897648 -6.90645 -36.3636 86.255 -19.4577 64.6548 -7.49134 -2.75069 13.174 -2.71841 41.5539 7.15638 11.8501 -0.560897 19.6121 -0.004378 12.2844 -0.626639 -16.3136 -21.0759 -42.5752 4.06473 -12.8362 -31.2686 0.00212799 25.9021 -0.0196147 -0.253107 -18.9899 18.264 
-9.72955 97.8683 48.485 -5.30231 4.0962 24.1148 8.93236 -4.175 17.1509 -75.1404 -22.2582 18.8602 18.9184 -11.7042 -36.1311 0.00145418 0.791233 -0.111172 -0.74329 -6.70523 -36.7543 84.4634 -18.3969 61.4207 -7.62776 -2.81644 13.4273 -2.3496 39.1186 6.57081 12.0423 -1.19831 18.5746 -0.00588009 13.2314 -0.639574 -15.7393 -21.1242 -41.8593 4.34131 -13.1137 -31.2901 0.00369766 26.1043 -0.148435 -1.09886 -19.3064 17.9352 
-9.96076 97.7344 48.4466 -5.32004 4.12339 24.6347 8.59056 -3.64063 16.7827 -76.0314 -21.597 18.5724 18.8777 -11.6622 -36.021 0.000945455 1.29414 -0.181845 -1.25617 -8.68349 -37.1761 76.5862 -14.7031 59.2299 -8.2802 -3.11539 14.7089 -1.38252 31.8201 4.97529 12.3985 -2.0934 18.1887 -0.00556669 14.7467 -0.724059 -15.8221 -21.7184 -41.98 4.4687 -13.6187 -31.2406 0.00447327 26.4361 -0.248525 -1.93849 -19.5181 17.2851 
-10.093 97.6852 48.3161 -5.77535 4.39207 25.7712 8.72456 -2.88726 15.9417 -77.2972 -20.2325 17.3009 18.9718 -11.7705 -36.2405 0.0258332 4.62848 -0.651834 -2.95538 -12.1393 -37.5378 56.3159 -5.82855 57.4222 -12.4366 -5.84553 22.4101 -0.068997 9.8895 1.40887 12.9125 -2.96566 18.0318 -0.00538496 15.2617 -0.791088 -16.4188 -22.1073 -42.7657 4.59083 -14.6468 -32.0692 0.00455555 26.7058 -0.314627 -2.56487 -19.4956 16.738 
-10.097 97.6239 48.0448 -6.91959 5.13441 28.0256 9.3288 -2.20086 14.6866 -79.1432 -19.103 15.5624 19.6236 -12.5514 -37.7551 0.0403003 5.9515 -0.839162 -4.87562 -17.6668 -38.7651 37.9954 1.13929 53.9998 -21.5752 -15.3293 41.4348 -0.171922 -9.91257 -1.40751 13.7516 -4.89792 17.8951 -0.00344165 16.0427 -0.908748 -17.3787 -22.7086 -44.4258 4.76114 -16.9465 -33.6266 0.00114141 27.1921 -0.419378 -3.51214 -19.3419 15.4882 
-10.0063 97.5412 47.8981 -8.41672 5.72764 31.0818 10.1664 -1.70976 13.5926 -81.4909 -17.601 13.6836 20.5641 -13.7339 -40.082 0.00353713 1.17285 -0.165047 -6.99076 -23.6961 -40.5374 36.1106 1.83053 47.2689 -26.7724 -25.5097 60.9818 -0.163735 -11.4162 -1.62646 15.0176 -6.72253 18.2933 0.00143199 16.6814 -1.10471 -19.4596 -23.7025 -47.2434 5.01882 -19.48 -35.2304 -0.00035415 27.6116 -0.57112 -4.92208 -19.1118 14.1699 
-9.78574 97.4734 48.13 -8.67185 5.91303 33.1406 9.78835 -2.02995 12.4815 -82.2403 -16.8749 12.8416 20.319 -13.424 -39.4406 -0.00385695 0.844772 -0.118598 -7.21837 -25.9109 -40.7198 42.089 6.22711 41.236 -27.5005 -28.0589 63.9684 -0.080397 -8.18447 -1.15791 14.8336 -7.32936 17.2661 0.000418132 17.161 -1.11318 -19.62 -24.154 -47.9298 4.13718 -19.8184 -37.1681 0.00333566 27.5039 -0.639561 -5.57823 -19.1721 14.3724 
-9.55192 97.3515 48.6819 -8.39001 5.52864 32.8064 9.0804 -2.82487 12.4207 -81.572 -18.4396 12.8536 19.0963 -11.9151 -36.5323 0.0408351 5.58717 -0.787943 -6.2037 -24.5461 -40.5049 46.7548 14.9409 37.3357 -24.4535 -20.0722 50.2615 -0.0402007 -5.89178 -0.830661 14.6311 -6.27319 16.4716 -0.00380135 16.7852 -1.00001 -18.9665 -24.1095 -46.8547 4.16118 -18.6585 -37.4076 0.000927324 27.5503 -0.706441 -5.97054 -19.9852 14.7639 
-9.30004 97.2452 49.3216 -8.23638 5.32157 30.9884 8.77326 -3.70257 13.1188 -80.8533 -20.0959 13.8844 18.315 -11.0267 -34.739 0.0466296 6.1115 -0.862266 -5.4061 -22.9338 -39.8163 49.6457 21.4561 36.2037 -18.9903 -11.6246 36.8053 -0.114977 -9.56202 -1.35683 14.669 -4.75818 17.0326 -0.00517164 15.5743 -0.874346 -18.4591 -23.4983 -45.7642 4.6895 -17.5435 -36.6991 0.0008651 27.9063 -0.723882 -5.58414 -21.0051 15.5547 
-9.00424 97.262 49.6824 -7.98669 5.80942 29.7736 8.26831 -4.08949 12.995 -80.3176 -21.3125 14.8179 17.7848 -10.4612 -33.5284 0.0636236 7.31692 -1.03365 -5.39623 -23.2046 -38.7854 52.0998 21.9946 35.4413 -20.5006 -13.672 39.8726 -0.0825184 -8.19298 -1.15933 14.0197 -4.34244 17.3578 -0.00524312 14.8698 -0.782701 -17.6229 -22.9315 -44.9005 4.7106 -17.0776 -35.888 -0.0045535 27.3818 -0.724029 -5.31294 -21.1235 15.4601 
-8.72714 97.2494 49.6834 -8.53412 6.31557 28.5892 9.21282 -4.07865 12.4629 -79.319 -22.9625 14.7612 16.669 -9.32034 -31.1068 0.156786 11.1869 -1.5928 -5.88197 -22.9797 -37.0168 45.8377 19.6115 40.8566 -23.8398 -18.8131 48.6616 -0.0572958 -6.78142 -0.957614 14.0975 -4.60195 17.9397 -0.00391075 14.2623 -0.736869 -16.9628 -22.421 -44.0684 4.9702 -17.3579 -36.0197 -0.00394334 27.6465 -0.712759 -4.97919 -21.5717 16.6508 
-8.50353 97.2681 49.6318 -8.95774 6.841 27.8856 9.89979 -3.6907 12.335 -77.9869 -26.0303 13.6836 15.8001 -8.503 -29.25 0.19622 12.3816 -1.76924 -6.41222 -23.1111 -35.9692 40.536 14.4775 45.2104 -26.4257 -24.5718 58.9024 -0.0453349 -6.20559 -0.875404 14.1006 -4.97933 18.5049 -0.00245594 13.8048 -0.713219 -16.5797 -22.0162 -43.784 4.83553 -17.5958 -36.8052 0.0040122 27.7706 -0.675911 -4.52415 -21.8231 18.2142 
-8.24671 97.3375 49.652 -9.20651 6.94176 27.9517 10.1168 -3.78934 11.7827 -74.9671 -33.2307 13.08 13.875 -6.87191 -25.2706 0.238948 14.5248 -2.07861 -4.18873 -22.0308 -33.6648 41.9121 11.2288 46.6978 -26.7162 -25.4022 59.853 -0.0158288 -3.47314 -0.488815 13.8346 -4.77754 18.199 -0.00350594 12.9494 -0.624288 -16.1335 -21.6896 -43.2396 4.70781 -17.4743 -37.6443 0.00742752 27.6007 -0.628371 -4.17848 -21.8059 18.9638 
-8.04608 97.3612 49.8046 -8.75982 6.40519 27.1562 9.65688 -3.91083 11.7776 -69.8609 -43.7147 14.8172 11.2143 -4.90113 -20.1214 0.939891 26.2647 -3.98069 0.509934 -19.5171 -30.7669 43.6218 15.1387 45.8439 -24.1095 -19.4162 49.3813 -0.0250257 -4.56385 -0.642742 13.3844 -3.52178 17.9343 -0.00424516 12.2862 -0.546072 -15.6223 -21.5506 -42.3079 4.77377 -16.2783 -36.9507 0.00874145 27.3698 -0.600832 -3.8997 -21.9464 18.9194 
-7.83464 97.3119 50.0269 -8.11889 6.43224 26.0448 9.19021 -4.64254 12.7241 -66.3345 -47.3705 17.6099 10.5892 -4.50639 -18.9125 1.18087 29.2613 -4.51692 2.44492 -16.6725 -30.0466 44.8401 21.3567 44.6356 -18.9868 -11.6842 36.6762 -0.0353076 -5.45001 -0.7682 13.0216 -3.08575 19.0227 -0.00411095 12.8216 -0.578676 -15.7676 -21.8407 -42.7384 4.64142 -15.5399 -35.6054 0.00860299 27.1106 -0.576955 -3.78578 -22.0834 18.3545 
-7.709 97.4097 50.0744 -7.46563 6.76397 25.5614 8.86847 -4.7132 13.4582 -65.6417 -46.3078 18.8306 11.0709 -4.81769 -19.8262 1.03897 27.6489 -4.22206 -1.40849 -16.1865 -30.088 42.979 23.2632 44.5371 -18.8513 -11.6533 35.91 -0.0142321 -3.37319 -0.474613 12.2868 -3.13876 19.651 -0.00378177 13.2044 -0.599552 -15.8778 -22.1995 -42.9675 4.56029 -15.1702 -34.4065 0.00546124 25.9813 -0.544198 -3.85931 -21.4602 16.8667 
-7.65863 97.4923 49.8147 -7.61544 7.13727 25.525 9.40024 -4.34802 12.7092 -64.3742 -47.0579 20.5516 10.9491 -4.73863 -19.5935 1.20022 29.4844 -4.55787 -5.04288 -16.4247 -28.5542 34.8377 19.5461 49.8804 -21.7727 -15.4373 43.0831 -0.0248817 -4.48748 -0.631979 12.1338 -3.71023 19.9229 -0.00346118 13.1922 -0.594272 -15.7025 -22.057 -42.9903 4.42933 -15.6878 -34.6019 0.00560898 25.8769 -0.495979 -3.59538 -21.1279 17.1185 
